<?xml version="1.0" encoding="UTF-8" standalone="no"?>
<!-- Created with Inkscape (http://www.inkscape.org/) -->

<svg
   xmlns:dc="http://purl.org/dc/elements/1.1/"
   xmlns:cc="http://creativecommons.org/ns#"
   xmlns:rdf="http://www.w3.org/1999/02/22-rdf-syntax-ns#"
   xmlns:svg="http://www.w3.org/2000/svg"
   xmlns="http://www.w3.org/2000/svg"
   xmlns:sodipodi="http://sodipodi.sourceforge.net/DTD/sodipodi-0.dtd"
   xmlns:inkscape="http://www.inkscape.org/namespaces/inkscape"
   width="55.893925mm"
   height="17.683064mm"
   viewBox="0 0 198.04934 62.656524"
   id="svg2"
   version="1.1"
   inkscape:version="0.91 r13725"
   sodipodi:docname="trident.svg"
   inkscape:export-filename="C:\design\Graphic Design\logo concepts\trident\trident_concept_01.png"
   inkscape:export-xdpi="90"
   inkscape:export-ydpi="90">
  <defs
     id="defs4" />
  <sodipodi:namedview
     id="base"
     pagecolor="#ffffff"
     bordercolor="#666666"
     borderopacity="1.0"
     inkscape:pageopacity="0.0"
     inkscape:pageshadow="2"
     inkscape:zoom="2.8284271"
     inkscape:cx="-10.54945"
     inkscape:cy="-40.837687"
     inkscape:document-units="px"
     inkscape:current-layer="layer1"
     showgrid="false"
     fit-margin-top="1"
     fit-margin-bottom="1"
     fit-margin-right="1"
     fit-margin-left="1" />
  <metadata
     id="metadata7">
    <rdf:RDF>
      <cc:Work
         rdf:about="">
        <dc:format>image/svg+xml</dc:format>
        <dc:type
           rdf:resource="http://purl.org/dc/dcmitype/StillImage" />
        <dc:title></dc:title>
      </cc:Work>
    </rdf:RDF>
  </metadata>
  <g
     inkscape:label="Layer 1"
     inkscape:groupmode="layer"
     id="layer1"
     transform="translate(-228.2199,-464.39415)">
    <g
       style="font-style:normal;font-weight:normal;font-size:40px;line-height:125%;font-family:sans-serif;letter-spacing:0px;word-spacing:0px;fill:#345686;fill-opacity:1;stroke:none;stroke-width:1px;stroke-linecap:butt;stroke-linejoin:miter;stroke-opacity:1"
       id="text4136">
      <path
         d="m 253.36321,489.59798 0,-1.92 -21.6,0 0,1.92 9.76,0 0,26.08 2.08,0 0,-26.08 9.76,0 z"
         style="font-style:normal;font-variant:normal;font-weight:500;font-stretch:normal;font-family:'Gotham Light';-inkscape-font-specification:'Gotham Light, Medium';letter-spacing:-0.18000001px;fill:#345686;fill-opacity:1"
         id="path4157" />
      <path
         d="m 282.32071,515.67798 -9.24,-11.96 c 4.72,-0.64 8.2,-3.32 8.2,-8 l 0,-0.08 c 0,-4.68 -3.96,-7.96 -10,-7.96 l -11.76,0 0,28 2.08,0 0,-11.6 9.16,0 8.92,11.6 2.64,0 z m -3.12,-19.88 c 0,4.04 -3.48,6.4 -8.16,6.4 l -9.44,0 0,-12.6 9.56,0 c 5.08,0 8.04,2.36 8.04,6.12 l 0,0.08 z"
         style="font-style:normal;font-variant:normal;font-weight:500;font-stretch:normal;font-family:'Gotham Light';-inkscape-font-specification:'Gotham Light, Medium';letter-spacing:-0.18000001px;fill:#345686;fill-opacity:1"
         id="path4159" />
      <path
         d="m 324.29821,501.67798 0,-0.08 c 0,-7.88 -6.08,-13.92 -14.88,-13.92 l -9.32,0 0,28 9.32,0 c 8.8,0 14.88,-6.12 14.88,-14 z m -2.16,0.08 c 0,6.68 -4.92,12 -12.72,12 l -7.24,0 0,-24.16 7.24,0 c 7.8,0 12.72,5.44 12.72,12.08 l 0,0.08 z"
         style="font-style:normal;font-variant:normal;font-weight:500;font-stretch:normal;font-family:'Gotham Light';-inkscape-font-specification:'Gotham Light, Medium';letter-spacing:-0.18000001px;fill:#345686;fill-opacity:1"
         id="path4161" />
      <path
         d="m 351.28821,515.67798 0,-1.92 -18.04,0 0,-11.24 16.04,0 0,-1.92 -16.04,0 0,-11 17.84,0 0,-1.92 -19.92,0 0,28 20.12,0 z"
         style="font-style:normal;font-variant:normal;font-weight:500;font-stretch:normal;font-family:'Gotham Light';-inkscape-font-specification:'Gotham Light, Medium';letter-spacing:-0.18000001px;fill:#345686;fill-opacity:1"
         id="path4163" />
      <path
         d="m 381.06508,515.67798 0,-28 -2,0 0,24.36 -19.32,-24.36 -1.96,0 0,28 2,0 0,-24.88 19.72,24.88 1.56,0 z"
         style="font-style:normal;font-variant:normal;font-weight:500;font-stretch:normal;font-family:'Gotham Light';-inkscape-font-specification:'Gotham Light, Medium';letter-spacing:-0.18000001px;fill:#345686;fill-opacity:1"
         id="path4165" />
      <path
         d="m 408.76758,489.59798 0,-1.92 -21.6,0 0,1.92 9.76,0 0,26.08 2.08,0 0,-26.08 9.76,0 z"
         style="font-style:normal;font-variant:normal;font-weight:500;font-stretch:normal;font-family:'Gotham Light';-inkscape-font-specification:'Gotham Light, Medium';letter-spacing:-0.18000001px;fill:#345686;fill-opacity:1"
         id="path4167" />
    </g>
    <text
       xml:space="preserve"
       style="font-style:normal;font-weight:normal;font-size:30.43333054px;line-height:125%;font-family:sans-serif;letter-spacing:0px;word-spacing:0px;fill:#345686;fill-opacity:1;stroke:none;stroke-width:1px;stroke-linecap:butt;stroke-linejoin:miter;stroke-opacity:1"
       x="412.19946"
       y="494.34244"
       id="text4146"
       sodipodi:linespacing="125%"
       inkscape:export-xdpi="90"
       inkscape:export-ydpi="90"><tspan
         sodipodi:role="line"
         id="tspan4148"
         x="412.19946"
         y="494.34244"
         style="font-size:11.41249847px;fill:#345686;fill-opacity:1">®</tspan></text>
    <g
       id="g4601"
       transform="matrix(0.00150232,-0.67378994,0.67378994,0.00150232,-98.65346,695.49131)">
      <path
         inkscape:connector-curvature="0"
         id="rect4541"
         d="m 257.94731,575.76522 c -0.78041,0 -1.40821,0.52963 -1.40821,1.188 l 0,1.8339 c 0,0.65837 0.6278,1.18799 1.40821,1.18799 l 3.08552,0 0,-4.20989 -3.08552,0 z m 7.04623,0 0,4.20989 43.0076,0 c 0.78042,0 1.4082,-0.52962 1.4082,-1.18799 l 0,-1.8339 c 0,-0.65837 -0.62778,-1.188 -1.4082,-1.188 l -43.0076,0 z"
         style="opacity:1;fill:#345686;fill-opacity:1;fill-rule:nonzero;stroke:none;stroke-width:1.50402665;stroke-linecap:round;stroke-linejoin:round;stroke-miterlimit:4;stroke-dasharray:none;stroke-opacity:1" />
      <rect
         ry="1.020978"
         y="573.43848"
         x="259.45023"
         height="7.4048653"
         width="4.1486516"
         id="rect4563"
         style="opacity:1;fill:#345686;fill-opacity:1;fill-rule:nonzero;stroke:none;stroke-width:1.44589937;stroke-linecap:round;stroke-linejoin:round;stroke-miterlimit:4;stroke-dasharray:none;stroke-opacity:1"
         transform="matrix(0.99999675,0.00254774,0.00259605,0.99999663,0,0)" />
      <g
         transform="matrix(0.89157617,0,0,0.89157617,33.604614,63.680778)"
         id="g4587">
        <g
           id="g4193"
           transform="matrix(1.0815766e-4,0.06386007,-0.06386007,1.0815766e-4,342.06203,560.26638)"
           style="fill:#345686;fill-opacity:1;stroke:#000000;stroke-opacity:1">
          <g
             id="g4195"
             style="fill:#345686;fill-opacity:1;stroke:#000000;stroke-opacity:1">
            <path
               id="path4197"
               d="m 391.455,135.411 24,8 -8,-64 c -24,24 -48,48 -48,80 0,32 16,64 16,96 0,32 -40,56 -72,56 -32,0 -32,-40 -32,-40 l 0,-176 24,0 -40,-88 -40,88 24,0 0,176 c 0,0 0,40 -32,40 -32,0 -72,-24 -72,-56 0,-32 16,-64 16,-96 0,-32 -24,-56 -48,-80 l -8,64 24,-8 c 16,48 -24,72 -24,144 0,72 96,88 128,88 l 0,136 64,0 0,-136 c 32,0 128,-16 128,-88 0,-72 -40,-96 -24,-144 z"
               style="fill:#345686;fill-opacity:1;stroke:none;stroke-opacity:1"
               inkscape:connector-curvature="0" />
            <g
               id="g4199"
               style="fill:#345686;fill-opacity:1;stroke:#000000;stroke-opacity:1">
              <path
                 id="path4201"
                 d="m 415.455,143.411 -2.073,-16.584 c -1.212,5.346 -1.731,10.418 -1.7,15.326 l 3.773,1.258 z"
                 style="fill:#345686;fill-opacity:1;stroke:#000000;stroke-opacity:1"
                 inkscape:connector-curvature="0" />
              <path
                 id="path4203"
                 d="m 239.455,271.411 c 0,0 -0.002,12.807 -5.8,23.928 29.794,-1.794 29.8,-39.928 29.8,-39.928 l 0.364,-229.6 -8.364,-18.4 -40,88 24,0 0,176 z"
                 style="fill:#345686;fill-opacity:1;stroke:#000000;stroke-opacity:1"
                 inkscape:connector-curvature="0" />
              <path
                 id="path4205"
                 d="m 247.455,503.411 0,-152 c -32,0 -128,-16 -128,-88 0,-69.211 36.951,-86.685 18.496,-144.782 -9.14,-13.859 -21.816,-26.539 -34.496,-39.218 l -8,64 24,-8 c 16,48 -24,72 -24,144 0,72 96,88 128,88 l 0,136 24,0 z"
                 style="fill:#345686;fill-opacity:1;stroke:none;stroke-opacity:1"
                 inkscape:connector-curvature="0" />
            </g>
            <path
               id="path4209"
               d="m 239.455,447.411 0,-32 c 0,-8.836 7.163,-16 16,-16 l -32,0 c -8.837,0 -16,7.164 -16,16 l 0,32 c 0,8.836 7.163,16 16,16 l 32,0 c -8.836,0 -16,-7.164 -16,-16 z"
               style="fill:#345686;fill-opacity:1;stroke:#000000;stroke-opacity:1"
               inkscape:connector-curvature="0" />
          </g>
          <g
             id="g4213"
             style="fill:#345686;fill-opacity:1;stroke:none;stroke-opacity:1">
            <path
               id="path4215"
               d="m 396.564,145.019 16.52,5.507 c 11.57422,3.21641 11.17399,2.83392 9.814,-8.046 l -8,-64 c -1.97713,-13.491111 -1.96879,-13.389186 -12.746,-4.373 -24.678,24.679 -45.29647,50.20966 -45.29647,85.31666 0,16.923 4.88275,32.94788 8.92575,49.12088 3.999,15.995 8.12325,32.1548 8.12325,47.2318 0,26.866 -41.2508,54.81618 -70.4658,54.81618 -24.052,0 -26.52574,-54.89515 -26.53274,-56.20415 3.05205,-143.45513 -6.03462,-141.50975 -9.96508,39.0288 10.35583,62.29924 42.99542,40.53339 88.87409,8.09683 17.502,-12.501 27.141,-28.874 27.141,-46.103 0,-16.923 -4.181,-33.646 -8.224,-49.819 -3.999,-15.995 -7.776,-31.104 -7.776,-46.181 0,-24.393 15.858,-44.051 34.972,-63.757 l 4.61,36.879 -12.71,-4.237 c -3.932,-1.308 -8.178,0.813 -9.487,4.743 -9.289,27.869 -1.532,48.112 7.449,71.553 7.577,19.775 16.166,42.188 16.166,74.819 0,27.916 -16.034,49.515 -47.658,64.197 -27.718,12.869 -58.829,16.303 -72.842,16.303 -4.143,0 -7.5,3.357 -7.5,7.5 l 0,24.5 -49,0 0,-24.5 c 0,-4.143 -3.358,-7.5 -7.5,-7.5 -14.013,0 -45.124,-3.434 -72.842,-16.303 -31.624,-14.683 -47.658,-36.281 -47.658,-64.197 0,-32.631 8.588,-55.044 16.166,-74.819 8.982,-23.44 16.739,-43.684 7.449,-71.553 -1.31,-3.93 -5.556,-6.05 -9.487,-4.743 l -12.71,4.236 4.61,-36.877 c 19.113,19.705 34.972,39.363 34.972,63.756 0,15.077 -3.777,30.186 -7.776,46.181 -4.043,16.173 -8.224,32.896 -8.224,49.819 0,17.229 9.639,33.602 27.141,46.103 15.251,10.894 34.825,17.397 52.359,17.397 16.171,0 28.588,-8.777 34.963,-24.715 4.485,-11.212 4.537,-22.317 4.537,-22.785 l 0,-176 c 0,-4.143 -3.358,-7.5 -7.5,-7.5 l -12.353,0 28.353,-62.375 28.353,62.375 -12.353,0 c -4.143,0 -7.5,3.357 -7.5,7.5 -2.75777,52.45722 15.09267,303.29842 15,31.588 l 0,-24.088 16.5,0 c 12.2881,0 12.24932,-0.02 6.828,-10.604 l -40,-88 c -6.29866,-15.154216 -6.56571,-15.384578 -13.656,0 l -40,88 c -4.70999,10.81574 -4.71132,10.604 6.828,10.604 l 16.5,0 -1.02641,149.7718 c -0.007,1.328 0.0643,58.65084 -23.9877,58.65084 -29.215,0 -69.92374,-29.56691 -69.92374,-56.43291 0,-15.077 4.02702,-31.17522 8.02602,-47.17022 4.043,-16.173 10.0631,-31.75642 10.0631,-48.67942 C 155.10727,123.94509 133.437,98.786 108.759,74.107 96.924969,61.53434 98.894047,63.842035 96.014,78.48 l -8.500178,67.45939 c -0.990231,8.64423 -1.363753,8.8223 10.313178,4.58661 l 16.52,-5.507 c 4.199,19.149 -1.569,34.206 -9.232,54.205 -7.645,19.951 -17.159,44.78 -17.159,80.187 0,72.969 87.923,93.009 128,95.273 l 0,18.461 c -22.64589,18.33071 -23.13669,49.21434 0,76.532 l 0,33.734 79,0 0,-33.734 c 22.83056,-21.25796 23.33788,-64.13813 0,-76.532 l 0,-18.461 c 40.077,-2.265 128,-22.305 128,-95.273 0,-35.406 -9.515,-60.235 -17.159,-80.187 -7.664,-19.999 -13.432,-35.055 -9.233,-54.205 z"
               inkscape:connector-curvature="0"
               style="fill:#345686;fill-opacity:1;stroke:none;stroke-opacity:1"
               sodipodi:nodetypes="ccsccscsscccscscccccscssccsscscccccscscscssscccscccsccccsccsscsccccccsccccccccscc" />
          </g>
        </g>
        <path
           style="fill:none;fill-rule:evenodd;stroke:#345686;stroke-width:0.65230393px;stroke-linecap:butt;stroke-linejoin:miter;stroke-opacity:1"
           d="m 317.72264,576.16933 2.73734,-0.0582 0.14561,-2.12581 1.01923,-3.29064 1.9802,-2.21317 2.56262,-0.64066 2.41702,0.34945 2.44614,0.78625 2.41702,0.49506"
           id="path4583"
           inkscape:connector-curvature="0" />
        <path
           sodipodi:nodetypes="cccccc"
           style="fill:none;fill-rule:evenodd;stroke:#345686;stroke-width:0.65230393px;stroke-linecap:butt;stroke-linejoin:miter;stroke-opacity:1"
           d="m 323.01235,575.68833 0.81538,0.75713 0.81538,0.52418 5.53293,0.11648 9.02743,-0.0583 0.19278,0.0175"
           id="path4585"
           inkscape:connector-curvature="0" />
      </g>
    </g>
  </g>
</svg>
